<svg xmlns="http://www.w3.org/2000/svg" xmlns:xlink="http://www.w3.org/1999/xlink" height="44" width="213"><path d="M42.552 0l-.61.005-.61.01-.603.016.005.275-.01-.275-.603.02-.598.026.02.532 1.202-.042.598-.015.604-.01.61-.005.61-.005 1.22.01.604.01.598.015.604.02.598.02.02-.532-.598-.026-.604-.02L45.6.3l.005-.268-.603-.016-.61-.01-.61-.005-.005.268V0h-.61V.26L43.166 0h-.61v.262zm4.24.6l.598.03v-.005l.593.036.588.03.593.042.588.047v-.005L51.5.942l.578.063.572.062.567.067 1.134.146.557.077.562.084.55.09.083-.532-1.68-.25-.567-.073-.572-.073-.572-.068L51.547.41l-.03.266.023-.266-.577-.057-.583-.052-.025.262.02-.262-.583-.047-.023.262.018-.262-1.18-.083-.593-.037-.598-.03-.598-.026zm9.22.922l.55.09.547.093.546.1.094-.526-.546-.1L56.1 1zm1.644.282l.54.1.536.104.346.072-.035.22.15.026.156.026.16.03.16.037.167.042.172.042.17.042.177.052.182.052.182.052.187.057.187.063.193.068.12.042-.626-.13.115.146.064.064-.667.166-.765-.1-.687-.297-.61-.073-.11.022-.177-.08-.28-.125-.28-.12-.562-.23-.28-.104-.28-.104-.088.255.276.1.28.104.276.11.276.115.28.12.108.05-.067.013-.593-.088-.42-.25-.427-.26-.463-.203-.754.016-.702.28-.56.277-.1-.063-.213-.12-.213-.115-.213-.11-.213-.11-.208-.1-.203-.09-.11.24.203.094.203.1.208.1.208.11.208.114.213.12.092.054.007.05-.005.063-.536.34-.583.198-.603.12-.22.043-.27-.288-.146-.15-.146-.14-.146-.136-.135-.13-.135-.115-.13-.11-.13-.104-.12-.088-.12-.083-.114-.078-.11-.062-.104-.057-.1-.047-.115.24.094.042.093.052.1.063.104.068.115.078.114.088.12.1.13.104.13.115.13.12.14.135.286.287.146.156.004.005-.082.016-.432.146-.395.208-.372.24-.2.004-.286.083-.16.24-.448-.328-.41-.422-.505-.25-.38-.11-.343-.198-.048-.028-.036-.065-.13-.224-.13-.208-.135-.193-.135-.177-.14-.167-.135-.146-.14-.125-.182.193.135.125.125.136.13.15.125.167.13.188.125.198.026.043-.03-.006-.37.046-.338.12-.317.172-.323.198-.317.193-.23.255-.354.667-.494.52-.167.083h-.416V2.027h-.53v3.428h-4.37l.062-.167.114-.312.12-.302.12-.287.12-.276.003-.006.6-.296.078-.11.02-.115.016-.036.603-.34.572-.38.536-.438.265-.073h.2l.07.057.103-.193.017-.026-.002-.002.002-.004-.047-.026-.088.135h-.032L41.73 2l-.526-.333-.125-.156-.115-.224-.14-.15-.437-.03-.447.114-.442.14-.5.03-.505-.03-.52.078-.525.063-.52-.114-.505-.28-.093-.047-.11-.005-.12.01-.135.068-.104.094-.1.063-.427.172-.4.23-.35.318-.125.063-.19.046-.095-.208-.208.088-.208.1-.208.11-.213.11-.213.115-.213.12-.218.125-.218.136-.224.135-.218.14-.224.15-.224.15-.224.156-.224.167-.23.167-.224.172-.23.177-.224.183-.23.188-.453.39-.447.407-.23.213-.026.024-.1-.092-.14-.146-.25-.026.016.094-.016.03-.052.03-.15.016-.16-.01-.14-.005-.037-.125-.083-.125-.068-.114-.364-.33-.494-.11-.416-.167-.146-.24-.082-.124.27-.158.27-.156.276-.15.276-.146.276-.146.276-.14.28-.135.276-.13.276-.125.28-.125.276-.12.28-.115.276-.11.28-.104.276-.1-.093-.255-.276.104-.28.104-.28.115-.28.114-.286.12-.562.25-.28.135-.276.136-.28.14-.28.146-.276.15-.28.156-.276.156-.276.162L25.95 4l-.06-.024-.276.125-.27.162-.166.22-.516.338-.143.1-.065-.115.16-.235.177-.286-.025-.016-.02-.02-.182.167-.234.037-.244.052-.48.156-.53.046-.562.058-.276.167-.234.23-.224.052-.182-.14-.192-.198-.167-.24-.015-.094.026-.125-.013-.022.008-.004.23-.104V4.29l.225-.103-.001-.002.22-.102.224-.1.218-.094-.11-.245-.218.094-.224.1-.447.208.053.12-.058-.12-.224.1-.23.11-.23.115-.23.12.034.068h-.003l-.037-.068-.23.12-.23.12.007.013-.004.002-.008-.014-.114.062-.173.068-.635.208-.645.198-.645.203-.64.23-.473.22-.468.23-.48.188-.598.213-.588.213-.593.198-.61.15-.734.1.73.318.718.052.614-.156-.224.354-.468.115-.546-.02.052.422.193.302.255.266V8.878l-.206.173-.218.193-.218.198-.213.198-.218.198-.208.203-.213.204-.208.203-.203.208-.208.208-.396.427-.198.214-.193.22-.192.22-.187.22-.364.448-.173.224h-5.4v.27h5.202l-.14.192-.172.23-.323.47-.312.48-.29.48-.28.5-.13.245-.13.25-.24.5-.115.25-.11.255-.104.255-.104.255-.094.26-.088.255-.166.52-.073.266-.068.26-.062.266-.057.27-.052.266-.042.266-.042.27-.03.27-.026.27-.02.276-.014.24H.55l.001-.016.02-.302.03-.297.037-.302.042-.297.057-.292.057-.297.073-.292.078-.297.083-.287.093-.292.1-.292.11-.287.114-.286.125-.287.13-.28.14-.28.146-.28.15-.28.16-.276.172-.28.172-.27.182-.276.193-.27.198-.27.203-.27.208-.266.22-.266.23-.266.23-.26.24-.26.244-.26.255-.26.255-.255.54-.5.276-.25.286-.25.29-.245.296-.245.614-.48.317-.234.323-.234.328-.234.333-.23.343-.23.343-.224.354-.224.36-.224.364-.22.37-.213.374-.214.38-.214.385-.208.4-.204.395-.203.4-.204.41-.198.41-.198.416-.192.42-.188.427-.187.874-.365.442-.182.448-.172.447-.177.458-.167-.187-.505-.458.17-.458.178-.447.177-.447.183-.442.182-.437.188-.432.188-.853.386-.416.198-.41.204-.406.203-.4.204-.4.208-.4.213-.385.214-.38.22-.375.22-.37.22-.36.23-.36.225-.354.23-.343.234-.343.234-.333.235-.328.24-.323.24-.317.245-.307.245-.307.25-.296.25-.29.256-.28.25-.28.26-.27.26-.265.26-.26.26-.25.266-.245.27-.24.27-.458.542-.427.552-.203.282-.198.28-.187.28-.182.287-.172.287-.167.292-.16.287-.15.292-.146.297-.135.292-.13.297-.12.302-.115.297-.104.302-.093.302-.088.308-.083.308-.073.307-.062.307-.057.308-.047.313-.036.313-.03.313-.02.317-.016.313-.005.318.268.003-.268.003.005.313.016.318.02.313.03.313.036.313.047.313.057.313.062.307.073.308.083.307.088.302.093.302.104.302.115.302.12.297.13.297.135.297.146.292.15.292.16.292.167.287.172.292.182.282.187.287.198.28.203.276.213.282.078.1v.125h.1l.037.046.23.276.23.27.24.27.245.266.25.266.26.266.265.26.27.26.562.5.29.255.296.25.307.245.307.25.317.24.323.245.328.24.333.234.687.47.354.23.718.448.37.224.375.22.38.22.385.214.4.208.8.417.406.203.41.198.416.198.427.198.427.193.432.188.437.188.442.183.447.182.447.177.458.172.458.172.187-.5-.458-.172L17.2 39l-.448-.177-.442-.177-.437-.182-.437-.183-.427-.187-.262-.12h4.833l.075.042.515.287.53.28.54.28.55.28.562.282.578.28.588.276.604.28.61.276.057-.12-.052.12.624.282.635.276.157.067-.095.037-.13-.02-.005-.002h-.005l-.003.03V41.225h-.002.002l-.007.025.567.172.572.167.55.144-.108-.024-.484-.114-.48-.12-.484-.125-.474-.135-.48-.136-.096.34-.045-.01-.12.52.52.12.073-.318-.073.323.525.114.066-.286-.06.29.525.115.06-.278V42h.001l-.057.277.53.11.54.11.54.104.042-.222-.042.228.54.1.04-.213h.002l-.037.212.546.1.55.094 1.113.177.562.083 1.134.156.567.073.022-.175h.003l-.02.175.572.068 1.155.125 1.165.104.016-.182h.004l-.014.182.582.052.016-.187h.001l-.012.188.588.042.593.042.593.036.598.032.598.025.01-.2h.003l-.008.2.598.026.603.016.008-.217h.001l-.004.217.603.016.61.01.61.01.004-.226.001.226h.61l.002-.224.003.224h.61v-.23l.005.23 1.218-.02.603-.016-.004-.23.01.23.604-.016.598-.026-.01-.235h.003l.01.235.598-.025.598-.032.593-.036 1.18-.083-.017-.247.022.247.583-.052-.02-.242.024.242 1.16-.104-.02-.244.027.244 1.155-.125.572-.068.572-.073.567-.078.562-.078.562-.083.557-.088-.032-.2h.003l.034.2.552-.09.55-.094.546-.1-.032-.18.003-.001.034.18.54-.1-.033-.175.033.17.54-.104-.03-.167h.002l.035.167.536-.11.53-.1-.032-.154.003-.001.034.155.526-.114-.034-.155h.002.003l.035.15.526-.115-.02-.092.02.087.52-.12-.035-.15h.002l.038.152.515-.125.515-.13.5-.135-.045-.18.002-.001.05.182.505-.136.504-.14.5-.14-.032-.113.032.108.494-.146-.15-.5-.232.07-.127-.298-.27.115-.28.115-.307.11-.323.115-.343.11-.358.11.254-.083.245-.083.23-.083-.012-.03.017-.022-.416-.297-.255-.195.208-.097.583-.276.567-.276.557-.276.546-.28.536-.28.52-.276.5-.28.14-.078h4.686l-.262.12-.427.188-.437.183-.432.182-.442.177-.447.177-.453.172-.458.172-.458.167.182.505.463-.17.458-.172.458-.172.453-.177.442-.183.442-.182.437-.187.432-.188.427-.192.42-.198.832-.396.406-.203.4-.208.396-.208.4-.208.385-.214.38-.22.375-.22.728-.448.36-.224.35-.23.35-.234.338-.235.333-.234.328-.24.322-.245.318-.24.307-.25.302-.245.05-.043.022-.01.003-.012.22-.186.29-.255.286-.255.276-.255.27-.26.265-.26.26-.266.25-.265.245-.266.24-.27.23-.27.224-.276.038-.047h.025v-.03l.156-.193.213-.28.203-.276.193-.282.187-.287.182-.28.177-.292.166-.287.156-.292.15-.292.146-.292.135-.297.13-.297.12-.297.115-.302.104-.302.094-.302.088-.302.083-.308.073-.307.062-.308.057-.312.047-.312.036-.312.03-.313.02-.312.016-.318.005-.312-.268-.003.268-.003-.005-.318-.016-.312-.02-.318-.03-.312-.036-.312-.047-.312-.057-.308-.062-.307-.073-.308-.083-.307-.088-.308-.094-.302-.104-.302-.115-.297-.12-.302-.13-.297-.135-.292-.146-.297-.15-.292-.156-.287-.166-.292-.177-.287-.182-.287-.187-.28-.193-.28-.203-.28-.213-.276-.218-.276-.224-.27-.23-.27-.24-.27-.245-.27-.25-.266-.26-.26-.265-.26-.27-.26-.276-.255-.286-.255-.29-.255-.296-.25-.302-.25-.307-.245-.318-.245-.322-.24-.328-.24-.333-.235-.338-.234-.35-.235-.35-.23-.36-.224-.364-.23-.364-.22-.375-.22-.38-.22-.385-.214-.4-.213L74 6.602l-.4-.203-.406-.203-.416-.203-.416-.198-.42-.192-.427-.193-.432-.187-.437-.187-.213-.087-.01-.033-.218-.062-.442-.182-.453-.177-.458-.177-.458-.172-.463-.167-.13.362h-.001l.127-.362-.468-.167-.473-.162-.48-.162-.48-.156-.165.507.16-.507-.484-.15-.49-.15-.156.516.484.144-.001.002.42.13-.024-.006-.583-.162-.577-.182-.138-.05.42.124.15-.516-.494-.146-.5-.14-.505-.14-.505-.136-.08.292.074-.296-.5-.13-.515-.13-.515-.125-.064.254.058-.254-.52-.125-.526-.12-.096.417.1-.417-.526-.114-.104.472.1-.472-.53-.115-.536-.11-.055.266.05-.266-.54-.104-.54-.1zM67.748 39.52l-.462.164-.001-.003-.474.162.001.002-.474.16-.48.15.166.5.957-.312.473-.16-.036-.107.036.102.468-.162zm-1.888.635l-.478.154-.001-.003-.49.15.156.5.49-.146.484-.157zm-40.897 1.25l-.515-.125-.125.52.515.125zm-.515-.125l-.5-.13-.5-.13-.505-.136-.5-.14-.494-.14-.15.516.5.14.505.14 1.02.27.515.13zm-2.518-.677l-.5-.145V40.456l-.494-.15-.001.003-.478-.155-.16.51.484.157.068-.214-.062.214.49.146.494.146zm-1.462-.448l-.48-.15.001-.002-.474-.16V39.84l-.473-.16-.002.005-.462-.165.001-.002-.463-.167-.182.5.463.172.468.162.14-.4-.136.405.468.16.088-.253-.083.253.957.313zM18.116 4.647l.463-.167H18.578l.464-.165-.177-.505-.468.167-.463.167zm.926-.333l.473-.16V4.15l.474-.155-.001-.002.48-.154-.166-.51-.48.156-.48.162.083.253-.088-.253-.468.162zm1.425-.474l.484-.15V3.687l.5-.145V3.54l.5-.145.494-.14.5-.14.505-.135-.135-.516-.5.136-.505.14-.5.14-.494.146-.49.15.073.246-.078-.246-.484.15zm2.96-.86l.51-.135.001.005.5-.13-.13-.52-.515.13-.5.13zm1.02-.26l.515-.125-.125-.52-.515.125zm.515-.125l.52-.125.525-.115.526-.12-.115-.52-.525.114.056.27-.06-.27-.525.12-.52.125zm1.57-.36l.53-.11.536-.11.536-.104.54-.1-.1-.526-.54.1-.54.104-.54.11-.53.115zm2.144-.422l.546-.1.546-.094.55-.09.557-.088.557-.083.562-.078.562-.073.567-.073-.068-.532-1.134.146-1.13.167-.557.083-.557.094-.55.094-.546.1zm4.448-.677l.572-.068.572-.062.577-.062 1.155-.104-.047-.537-.583.052L34.8.41l-1.155.125-.572.068zm2.877-.297l.582-.05v.005l.588-.047.593-.042.588-.03.593-.036v.005l.598-.03-.026-.53-.598.026-.598.03-.593.037-.593.042-.588.042.017.257-.023-.257-.582.046zM22.356 3.892l.22-.094.213-.088.427-.167.208-.083.208-.073.203-.078.203-.067.203-.068.396-.125.192-.057.375-.104.182-.046.182-.042.177-.042.177-.037.172-.03.166-.03.16-.026.16-.02-.036-.266-.167.02-.166.03-.172.026-.172.036-.182.037-.182.042-.182.042-.187.052-.193.047-.385.114-.198.063-.203.063-.203.068-.208.073-.203.073-.213.08-.64.25-.437.188zM34.17 2.2l.443.05.74-.016.734.083.078.104-.073.188-.125.146-.38.323-.125.247-.088.035-.093.052-.094.058-.104.068-.104.073-.115.09-.114.093-.115.1-.125.114-.255.255-.135.146-.135.15-.14.162-.14.172-.146.177-.146.188-.138.188h-.393v.266h.197l-.114.16-.125.187-.083-.124-.635-.5-.65-.454-.713-.36-.356-.008.22-.175.224-.177.224-.172.224-.167.224-.162.218-.156.224-.15.22-.146.218-.136.218-.135.213-.13.213-.125.213-.12.208-.115.208-.11.208-.1.203-.1zm26.733.284l.462.1.515.125.515.13.001-.005.504.134.243.066-.025.085-.252.083-.05-.02-.213-.088-.416-.167-.406-.156-.203-.073-.198-.068-.193-.062-.193-.068zm.685.517l.1.037.198.073.203.078.072.027-.135-.032zm-.593.005l-.02.014-.002-.002zm-25.623.662l-.015.14.068.02-.005.11.088.02-.005.193-.047.188.015.13.193.36.068.36.094.266h-2.22l.02-.026.146-.182.14-.177.135-.167.14-.156.13-.15.13-.135.125-.13.125-.12.114-.11.115-.104.11-.088.104-.078.093-.073.094-.062zm-9.598.448l-.03.003zm13.02.132l-.013.03-.125.297-.12.302-.12.318-.09.26H37.21l.25-.433.338-.35.64-.287zm21.754.08l-4.38.01zm-4.814.01l-1.396.003zm-4.208.01L50.1 4.35zm4.695.032l2.717.01-2.717-.01zm-15.468.013l-.14.047-.15.146-.062.188.015.25.36-.094.182-.016.29-.167.03-.073V4.58l-.03-.11-.073.005-.057.01-.016-.068-.026.008-.001-.002v-.026l-.156-.005zm-15.64.458l.018.256.047.25-.187-.068-.213-.146-.05-.03.085-.057.265-.183zm41.185.073l2.275.006-2.275-.006zm4.198.628l.382.16.427.188.42.188.416.193.41.198.406.198.4.203.395.203.4.203.385.208.38.214.374.213.37.214.364.22.36.224.35.225.35.224.338.23.333.23.328.234.322.235.318.234.307.24.307.24.297.245.29.245.562.5.27.25.265.25.26.255.25.26.154.162H75.79l-.066-.083-.182-.224-.187-.23-.187-.22-.193-.224-.395-.437-.198-.214-.203-.213-.208-.213-.208-.21-.208-.208-.213-.203-.213-.208-.432-.4-.442-.39-.224-.193-.056.063.056-.068-.224-.187-.23-.193-.224-.187-.23-.183-.23-.182-.167.208.23.183.224.182.23.188.224.188.442.38.218.198.218.193.218.198.213.204.213.203.208.204.208.203.208.208.203.213.198.208.203.213.193.22.192.213.193.22.187.224.182.22.114.14H71.97l-.003-.036-.01-.094-.026.003-.005-.03-.078.02-.078.036-.1.026.023.073h-2.032l-.17-.108-.067-.1-.177-.28-.182-.276-.15-.22.138-.125.343.047.35.183.16.13.177.13.187.083.104.042.11.047.135.026h.23v-.032l.026-.01-.187-.558-.474-.4-.427-.47-.042-.162.042-.15.062-.125h.01l.063.01.052-.026.02-.11v-.115l.016-.083.088-.115.042-.14-.01-.146.286-.03.156-.204-.073-.25-.26-.35-.255-.35-.276-.323-.442-.417-.526-.323-.54-.313-.14-.036-.16.005-.146-.01-.11-.094-.037-.11.042-.083.5-.297.28-.025.2.14.468.323.15-.22-.308-.212.35.087.526.28.37.24.375.23.374.245.26.125.296.058.307-.03.036-.136-.042-.182-.073-.14-.484-.313-.526-.25-.442-.443-.02-.318.166-.333zm-1.387 1.472l.468.333.23.17-.002.002.234.17.23.175-.002.003.234.177.23.177.16-.208-.23-.183-.23-.177-.234-.177-.702-.516-.234-.167zM23.538 5.63l-4.734.077zm9.87.09h2.64l.08.078.328.115.333-.037.162-.156h1.286l-.05.146-.115.354-.11.365-.11.38-.11.385-.104.396-.1.412-.1.417-.1.427-.093.438-.09.448-.088.453-.088.464-.078.47-.083.48-.073.484-.078.495-.013.1h-6.678l.032-.11.125-.38.12-.375.13-.37.13-.36.12-.317.488-.173h.16l.057-.203-.295-.626.025-.056.14-.323.296-.625.15-.302.15-.297.15-.286.15-.276.156-.27.15-.26.15-.255.14-.22.017-.01.103-.176.048-.074.15-.23.15-.22.15-.213zm5.108 0h4.463v2.39l-.042.006-.28.266-.213.568-.416.35-.494.287-.41.37-.13.438.005.51.052.537.13.188.187.146.1.208.427.052.174.022-.293.046-.526.28-.4.344-.08.104H36.93l.008-.063.073-.5.078-.484.078-.474.083-.47.083-.464.088-.448.094-.448.094-.433.093-.422.1-.417.1-.406.104-.396.104-.38.11-.375.11-.365.115-.35zm7.434 0h.043l.33.27.24.4-.474.104-.453.25-.313.162.043-.08.057-.35.068-.338.13-.308zm-2.44.627l.01.003.343.063.385.11-.005-.078.083-.02-.005-.057h.1l.16.692.038.263-.027.01-.016-.006-.01-.006H44.564 44.56l-.006.022-.001.002-.16.054-.354.23-.02.093v.11l-.015.058-.494.14zm-1.347.295l-.135.047-.12.037-.068.427.047.443.057.438.17.208.28.23.203.03.036-.562-.15-.672-.198-.558-.068.026-.017.017zm.036.18h.001l-.001.002zm-9.947.17l-.057.093-.156.266-.056.097.014-.237.156-.177zm32.477.096l1.813.004-1.813-.004zm-23.252.007l-.296.114-.16.193.068.255.15.23.218.302.255.198-.057-.422-.088-.47-.052-.38-.026.005zm3.66.056l-.007.022-.026.007zm-27.19.637l.265.11.172.177.04.4-.338.333-.5.208.068.177.016.172-.036.14-.062.063-.104.005-.088.037-.14.297-.047.323-.078.323-.302.323-.396.25-.38.28-.276.22-.302.22-.182.25-.083.615.012.12H10.43l.044-.057.182-.22.182-.224.182-.22.193-.214.187-.213.198-.213.192-.214.203-.208.198-.208.203-.208.208-.204.208-.198.42-.4.22-.192.213-.193.218-.193.22-.187.07-.06.246.018.26-.073.5-.28.49-.266.53-.198.115.057.12.146.15.02.333-.26.35-.188.364-.156zm13.542.578l-.03.06-.002-.018zm39.732 1.537l-.193.005-.083.203.026.172.505.365.008.008-.06.018.057.12.135.063.083-.062-.106-.108.074-.022-.078-.318-.146-.245-.203-.187-.018.02zm-26.264.244l-.437.028zm.075.026l.297.047.26.234.286.266.193.39.224.125.35-.015.37.083.13.13.088.15.12.093.244.068.208.073.208.016.104-.094.016-.13.01-.09.005-.005.057.005.068.01.057-.052.042-.068-.005-.068h.083l.1.01.078.026.146.083.13.047.093.052.213.234.167.28.096.146.008.052.078.5.008.063h-.392l-.24-.042-.583-.104-.604-.01.01.104.014.052h-.346l-.048-.042-.323-.062-.36.026-.312-.104-.005-.088.015-.135-.01-.14-.115-.183-.088-.135-.14-.177-.193-.224-.244-.234-.245-.15-.27-.062-.25-.005-.218.068-.463.35-.437.344-.203.135v-.747l.14-.15.286-.443.052-.016h.11l.13-.02.416-.25zm26.498.53l.082.085h-.005l-.083-.037-.016-.042zm-42.054.126l.54.042.344.033-.1.238-.13.364-.13.37-.125.38-.125.385-.054.188h-3.27l.108-.067.29-.344.36-.24.328-.282.047-.187-.005-.182.057-.104.068.016.01.15.037.162.49.172.515-.115.526-.162.23-.11.12-.224-.03-.276-.062-.037h-.001l.022-.057-.042-.09zm43.52.224l-.12.005-.193.073-.16.094-.027.017-.088.05.026.047.047-.026.01-.007.033-.02.024.01.094.297.001.02-.012.012-.14.136-.07.056-.014-.066-.036-.037-.052-.026-.02-.042-.005-.104-.01-.1.014-.074.002-.004v-.006l-.023-.004-.03-.01-.003.006h-.003l-.002.01-.128.287-.057.208.005.13.083.047.115-.03.11-.07-.054.128.088.188h.265l.052-.338-.018-.276.106-.114.114-.146.078-.13.036-.11zm-30.013.648v.432l-.062-.018-.008.027-.003-.001.005-.03-.416-.072.24-.06.073-.073.042-.09.01-.036zm7.367.628l.24.094.075.406h-.06l-.047-.167-.396.167h-.333l-.014-.1-.05-.344.17.026zm31.387.562l.03.033.24.266.23.26.23.266.427.53.203.27.198.27.187.27.182.276.177.27.166.28.16.276.156.282.146.28.135.28.13.28.125.287.114.286.11.287.1.292.094.292.083.287.078.297.068.292.062.297.052.292.047.297.036.302.03.297.02.302V21.414h-6.257l-.007-.094-.026-.27-.026-.27-.04-.27-.042-.27-.047-.266-.114-.53-.068-.266-.073-.266-.078-.26-.167-.52-.093-.26-.1-.255-.104-.26-.11-.255-.11-.25-.12-.255-.12-.25-.13-.25-.13-.25-.135-.245-.14-.245-.14-.245-.15-.245-.15-.24-.156-.24-.156-.235-.167-.24-.166-.234-.172-.235-.172-.23-.08-.104h5.73zm-71.51.21h5l.028.276.015.708.12-.01.088-.01.016.01-.005.5-.104.526-.005.53.04.195-.12.3-.115.307-.208.615-.1.313-.088.313-.166.625-.073.318-.068.317-.057.318-.057.323-.047.318-.042.323-.036.323-.026.328-.02.323-.01.22H6.865l.013-.224.02-.266.026-.266.03-.266.036-.266.047-.26.104-.52.062-.26.068-.26.073-.255.078-.255.166-.51.094-.255.1-.25.104-.25.11-.25.11-.25.24-.49.125-.245.13-.24.135-.245.14-.24.14-.235.15-.24.15-.234.15-.234.16-.23.16-.234.167-.23.166-.224zm15.386 0h4.02l-.097.34-.11.406-.1.412-.1.422-.094.427-.088.432-.078.438-.078.448-.068.448-.062.458-.052.464-.047.47-.042.48-.03.48-.026.5-.016.5-.01.5.007.708H27.7l-.07-.037-.01-.005-.458-.214-.494-.23-.5-.266-.64-.234-.67-.01-.62.245-.177.104-.16.073-.156.005-.062-.104-.042-.156-.088-.115-.297.026-.26.172-.244.14-.484-.073-.37-.365-.125-.432.02-.214.036-.203.015-.193h.167l-.083-.25-.005-.22-.052-.067.025-.157.062-.354.073-.354.078-.35.043-.18.098.012.26-.005.234.047.125.078.052.13-.01.208.16-.005h.13l.1.037.187.208.218.183.276.14.17.02.198-.03.083-.13-.35-.552-.453-.427-.494-.36-.406-.125-.445.03.086-.316.017-.055.165.118.312-.068.28-.177.042-.1.005-.125.03-.08.234-.292.093-.297.15-.23.224-.12.28-.1h.323l.04-.12.11-.042.078-.078.02-.422.14-.302.4-.162.135-.156.026-.318.073-.28zm4.296 0h6.72l-.085.636-.062.51.265.037.062-.51.1-.672h3.662l-.032.042-.297.443-.323.573-.203.61-.146.625-.166.615-.25.578-.265.417-.24.438-.02.48.198.328.265.276.213.333.073.35.052.333.1.26.432.422.5.323.552.24.588.172.61.13.65-.052.135-.064v.44H36.26l.001-.073.01-.562.016-.558.02-.557-.265-.01-.02.558-.015.563-.016.563V21.414h-7.185l-.004-.208V20.7l.005-.495.015-.49.026-.485.03-.474.042-.474.047-.463.052-.46.062-.453.068-.448.073-.443.083-.437.083-.427.094-.422.094-.417.104-.407.11-.406.11-.396zm6.407 6.56l.026-.558-.265-.01-.026.553zm.026-.558l.062-1.1-.265-.016-.062 1.1zm.062-1.1l.036-.547-.265-.016-.037.542zm.036-.547l.042-.542.047-.537.104-1.058.052-.52.062-.516-.265-.03-.062.516-.052.526-.057.526-.093 1.073-.042.542zm14.244-4.356h.02l.005.092zm19.34 0h1.842l.065.078.172.146.02-.022.002.001-.001-.002.027-.014-.03-.062-.082-.125h3.632l.03.037.177.23.17.23.167.23.166.235.16.23.156.24.156.234.15.24.146.234.14.245.135.24.135.245.13.245.125.245.12.245.114.25.11.25.11.25.1.25.1.255.177.51.156.51.135.52.057.26.052.26.052.26.042.266.036.26.026.266.026.266.004.073h-6.656l-.012-.062-.146-.25-.142-.173-.004-.056-.026-.328-.037-.323-.042-.323-.007-.05.096.015.125-.01-.016-.125.026-.13-.1-.088-.016.018-.03.003.01.063-.09.09-.03.023-.018-.122-.057-.323-.057-.29.088-.013.047-.01.01-.135v-.506l-.125-.015-.052-.094-.083-.036-.02-.505-.224-.448-.144-.177-.096-.282-.11-.308-.114-.307-.115-.302-.125-.302-.13-.297-.135-.302-.14-.297-.136-.272.022-.176-.104-.74zm-19.1 1.138l.005.014.4.542.406.52.458.47.53.386.614.266.073.094.026.12.005.104-.01.474.1.417.38.255.62.162.635.036.603-.198.16-.115.167-.15.156-.11.38-.183.35-.213.255-.287.013-.048.018.1.068.453.057.453.052.458.047.47.037.47.03.48.02.48.015.485.005.495-.003.266h-3.265l.167-.287.312-.386.255-.417.052-.14.03-.146.062-.078.35-.328.187-.4-.005-.39-.213-.22-.37-.047-.37-.052-.374-.17-.35-.245-.354-.25-.552-.39-.5-.432-.427-.5-.302-.552-.255-.495-.312-.453-.328-.438-.083-.14-.11-.146-.088-.037h.01l.104-.02zm19.418.604l.227.49.125.297.125.297.115.302.114.302.087.252-.045.024-.062.266.083.245.228.09.01.036V17.445l.005.363.11.412.11.417.104.204.035.025.027.125.062.313.052.318.047.313.042.318.047.48-.057-.23-.15-.412-.474-.067-.005.026H71.295l-.014-.022-.302.204-.12.338-.036.354h-.115l-.104.068-.125.005.01.12.005.09-.01.02-.383.188h-1.897L68.2 21.3l-.047-.11-.193-.552-.166-.547-.083-.537.447.104.5.094.54.016.03-.745.02-.713-.203-.683-.213-.25-.265-.235-.234-.266-.078-.22-.016-.203.057-.136.406-.14.48.052.484.057.187-.156.156-.318.125-.297.198-.578zm-13.11.46l.383.05.536.156.54.073.26.073.245.104.244.078.167.146.28.5.244.5.224.52.427 1.042.24.516.27.5.12.052h.187l.23-.01.005-.156.052-.12.052-.115.234-.614.193-.615.28-.562.15-.135.208-.1.24-.047.057-.182.115-.135.12-.094.177-.036.167.167.23.208.178.055.025.096.083.35.078.35.135.708.057.354.052.36.042.365.036.36.03.365.026.37.016.365.003.24h-7.02l.003-.27-.005-.495-.015-.5-.02-.485-.03-.48-.036-.48-.047-.47-.052-.464-.057-.458-.068-.458-.073-.448-.083-.443-.083-.438zm-41.685.97V16.276l.265.505.23.5.4.464.073-.198.028-.123-.002.045.01.26.12.204.432.386.442.38.458.35.5.302.536.24.14.068.13.073.02.047.4.088.364.15.364.136.447.245.437.292.045.035-.004.07-.016.375-.007.245H14.46l.01-.204.02-.317.026-.323.036-.318.042-.318.047-.312.052-.318.125-.625.073-.313.078-.307.083-.308.187-.615.1-.302.11-.303zm49.03.922l.123.07.276.208.29.14.213.203.26.594.23.615.208.63.203.683.114.005.182-.005.156.067.265.375.338.302.37.224.088.078.03.026H65.13l-.004-.245-.016-.375-.026-.375-.026-.37-.042-.365-.04-.365-.052-.365-.062-.364-.062-.36-.073-.354-.078-.354zm7.86 1.57l-.002.006h-.003l-.001.012-.056.14-.03.224.016.156.026-.002v.002-.002h.002l.03.003.072-.513.001-.003v-.005l-.024-.005zm.307.235l-.042.088-.078-.005-.047.49.167.02.036-.114h.156l.005-.177-.01-.15-.073-.13-.023.015.002-.025zm-1.467.375l-.11.052-.057.114v.13l.063.063.265.15.083-.104.193-.224-.12.02-.016-.073-.073-.042-.014.02h-.001-.002l.002-.026-.104-.01zm-8.876.15l-.052.03-.016.1v.146l.088-.052.022-.008-.105.206.062.34.01.35.427.063.003.02-.107.137.182-.057-.014-.067.077-.1.328-.208-.057-.167-.27-.255-.27-.234zm8.876.2l.096.015-.096-.015zm1.93.174l-.04.005.006.03-.01-.026-.224.093-.16.11.036.183.177.063.208-.042.234-.02-.026-.125-.052-.104-.047-.073-.03-.047zm-28.87.417l.323.14.208.276.026.27-.015.297.01.11H43.51v-.707l.494-.33zm-22.693.6l.114.087.093.12.062.135.02.11h-.004l.008.042h-.308l.003-.24zm45.906.166l.26.057-.26-.056zm-67.002.6h6.046l-.001.036v.276l.005.276.01.276.02.276.026.282.03.28.042.276.047.282.052.28.062.287.068.28.078.28.083.287.088.287.104.28.104.287.115.287.125.287.13.287.14.286.15.287.156.292.16.287.177.286.182.292.187.287.203.292.208.287.218.292.053.068H3.64l-.013-.016-.208-.266-.203-.27-.198-.27-.193-.27-.182-.276-.172-.276-.172-.276-.16-.276-.15-.282-.146-.28-.14-.28-.13-.287-.125-.286-.114-.287-.11-.286-.1-.287-.093-.292-.083-.292-.078-.292-.073-.292-.114-.594-.042-.297-.037-.297-.03-.297-.02-.302-.01-.303-.005-.3v-.003l.005-.302zm6.316 0h7.325l-.005.167v.328l.005.33.016.328.02.333.026.333.036.328.094.667.062.333.062.333.078.34.078.333.094.333.1.338.104.333.115.34.125.333.135.338.14.333.146.34.16.333.167.338.177.334.182.338.096.162H9.954l-.183-.235-.213-.28-.203-.287-.198-.287-.187-.28-.182-.287-.167-.28-.166-.28-.15-.287-.146-.28-.135-.28-.13-.282-.12-.28-.115-.276-.104-.28-.1-.282-.09-.276-.083-.28-.073-.276-.068-.276-.062-.276-.052-.276-.047-.27-.036-.276-.03-.27-.026-.276-.03-.542-.005-.27.005-.266zm7.592 0h6.9v.234l.01.38.016.38.02.386.03.38.04.38-.062.073-.073.37.02.438.13.417.146.308.125.307.06.097.08.34.104.396.114.396.12.396.135.396.14.4.15.396.16.4.17.4.182.4.13.27h-6.602l-.17-.297-.182-.328-.17-.333-.167-.328-.156-.333-.146-.328-.14-.333-.13-.328-.12-.333-.114-.328-.104-.33-.1-.333-.088-.33-.078-.328-.073-.328-.068-.33-.057-.328-.052-.328-.042-.328-.03-.323-.03-.328-.02-.323-.01-.33-.005-.323v-.323zm7.172 0h.363l.022.125.037.203.11.115.156.093.11.094.016.292-.15.276-.16.26-.213.276-.193.157-.015-.15-.03-.38-.026-.375-.016-.38-.005-.37zm6.526 0h.393v.036l.013.313-.143-.13-.24-.203zm.663 0h7.177l-.007.787v.568l.005.568h.27l-.01-1.136.005-.568.004-.22h6.723v8.347h-6.3l-.027-.22-.062-.558-.057-.558-.052-.562-.047-.563-.042-.562-.036-.563-.026-.568-.026-.568-.02-.568-.015-.568-.01-.568-.27.005.01.568.015.568.02.573.026.567.03.573.036.568.042.563.047.568.052.563.057.563.062.557.023.188h-4.414l.068-.052.135-.407.026-.406-.016-.39.026-.4.146-.443.193-.437.224-.422.11-.27.15-.28.114-.276-.026-.01.026-.001.016-.5-.245-.37-.41-.276-.49-.234-.48-.224-.385-.26-.317-.433-.307-.464-.427-.344-.635-.323-.567-.443-.095-.086-.004-.064-.015-.51zm14.698 0h1.422l.175.5.198.594.224.588.27.59.198.662-.015.683-.146.662-.177.505-.156.495-.005.5.193.47.255.396.187.448.078.62.026.625H43.51zm10.647 0h3.42l-.01.458-.02.505-.03.51-.042.5-.047.52-.057.52-.073.526-.078.537-.088.53-.104.542-.11.547-.125.547-.13.552-.146.552-.16.563-.13.422h-5.29l.116-.23.015-.245-.01-.24.068-.224.13-.27.078-.26.125-.213.4-.35.396-.36.302-.458.198-.667.02-.688-.104-.683-.03-.17-.026-.188-.057-.17-.1-.365.005-.396.02-.364.182-.026.156-.114.104-.13.49-.552.484-.52zm3.685 0h7.024v.234l-.005.37-.015.38-.026.375-.03.38-.036.375-.052.385-.057.38-.062.386-.073.386-.177.77-.104.39-.11.39-.12.39-.13.39-.14.396-.15.39-.16.396-.167.396-.182.396-.187.386h-6.37l.102-.35.16-.563.146-.562.135-.558.125-.552.115-.547.1-.547.093-.537.078-.537.073-.537.057-.526.052-.52.037-.52.03-.516.02-.51zm7.3 0h4.577l-.098.073-.36.333-.062.11-.062.125.057.073.49.224.474.24.463.328.35.042.29-.177.255-.047.068.13.016.28.057.25.303.068-.006.062-.093.656-.057.328-.068.33-.073.328-.078.328-.088.33-.1.333-.104.33-.114.328-.12.333-.13.328-.103.246-.08.046-.536.313-.562.287-.323.14-.312.203-.203.27-.026.28.052.307-.018.188h-5.632l.13-.27.187-.4.172-.4.16-.4.15-.396.14-.4.135-.396.12-.396.114-.396.104-.396.094-.396.083-.39.073-.39.068-.39.057-.386.052-.39.073-.766.02-.386.016-.38.005-.38zm2.17 0l-.244.063-.167.104-.073.15.078.162.343.563.198.35.17.292.208.22.25.136.354.078-.068-.24.063-.208-.01-.234-.208-.417-.198-.412-.36-.36v.016l-.11-.15zm5.32 0h1.076l-.008.036-.073.28.005.282.115-.1.13-.12.073-.094.02-.172-.028-.114h5.308l.01.193.005.265v.27l-.01.27-.016.27-.02.27-.026.27-.036.27-.042.276-.047.27-.057.276-.062.276-.068.276-.078.276-.083.276-.094.276-.104.282-.104.276-.12.28-.125.276-.13.28-.14.28-.15.28-.153.277-.018-.365-.03-.604-.047-.615-.088-.62-.135-.6-.03.005-.018-.02-.328.27-.213.39-.177.396-.374.58-.213-.078-.182-.245-.234-.317-.146-.37-.265-.333-.23-.026-.234.14-.203.15-.588.333-.583.302-.588.338-.115.104-.104.11-.078.047-.567.255-.536.292-.07.042.102-.255.12-.333.114-.34.11-.333.1-.34.088-.333.083-.333.073-.34.068-.333.057-.333.052-.333.047-.333.02-.216.11-.07.218-.333.177-.61-.052-.62zm6.888 0h6.25v.01l.005.302-.005.302-.01.303-.02.302-.03.297-.036.297-.047.297-.052.297-.062.297-.068.292-.078.292-.083.292-.094.292-.1.287-.11.292-.114.287-.125.28-.13.287-.135.28-.146.28-.156.282-.16.276-.166.276-.177.276-.182.276-.187.27-.198.27-.203.27-.226.28h-5.244l.075-.235.1-.672.006-.407.056-.088.167-.287.16-.286.15-.28.14-.287.135-.286.125-.287.12-.287.115-.28.1-.287.094-.28.088-.287.078-.28.073-.28.068-.282.057-.28.047-.28.042-.282.036-.276.03-.28.02-.276.02-.552v-.276l-.005-.276zm-10.232.692l1.774.113zm6.462.08l-.245.052-.16.17-.135.204-.078.22.073.182.167.167.182.026.182-.016.156.026.203.25.02.292.146.276.28.104.317.03.307.02.265.198.224.282.318.088.12-.13.02-.22-.052-.245-.057.016-.04.005h-.005l-.02-.224.016-.25-.073-.198-.29-.364-.338-.333-.4-.287-.328-.167-.37-.114-.4-.062-.005.028zm-1.13.72l-.12.078-.1.1-.098.046-.075-.007-.003-.003-.03-.146-.083-.062-.04.09v.104l.03.068.1.007.05.06.02-.02.016.026.114-.083.032-.03.067-.03.145-.146.016-.01V23.218 23.216l-.01-.01zm-.5.104l.01.01.025.107-.03-.003-.01-.026v-.078zm-4.094.766l-.22.026.002.026h-.002v-.026l-.27-.005-.276-.016-.26.1-.03.083v.104l.03.083.442.208.255.104.27-.125.16-.088.167-.078.17-.1.02-.073-.01-.073-.01-.047-.234-.057zm3.184.323v.028l-.026-.003-.005.052-.182.214-.27.27-.08.072-.02-.067-.207.25-.006.004.001.002-.007.008.024.02.012.02.083-.052.09-.083.015.046.172.183.125.03.187-.312.193-.308.005-.38h-.068zm-4.116.032l.405.005-.404-.005zM22.11 25.67v.003zm32.714.276l-.12.026-.11.01-.255.427-.385.22-.494.026.047.427-.11.292-.307.302-.036.1.005.146-.01.1-.307.48-.015.547.208.5.354.386.35.068.265-.23.1-.344.177-.604.307-.547.23-.6.042-.12.073-.083h.192l-.073-.417.01-.454-.02-.583h-.032zM22.49 27.273l.127.294.297.516.35.474.406.438.218.057.265.016.224.078.385.558.077.33H23.6l-.187-.386-.182-.396-.166-.396-.16-.396-.15-.39-.14-.396-.13-.39zm-18.626 3.03H9.83l.197.24.244.287.255.292.26.292.557.58.29.287.307.292.312.292.323.287.328.292.343.287.354.287.364.292.375.287.385.287.4.292.406.287.416.287.427.287.437.287.452.287.458.287.473.28.484.287.45.26h-4.934l-.41-.192-.41-.198-.4-.203-.395-.203-.4-.203-.385-.214-.38-.208-.374-.214-.37-.22-.364-.22-.36-.22-.354-.224-.343-.224-.343-.23-.333-.23-.328-.235-.323-.234-.317-.234-.307-.24-.307-.245-.296-.24-.29-.25-.286-.245-.276-.25-.27-.25-.27-.255-.5-.51-.244-.26-.24-.26-.23-.26zm6.3 0h6.385l.143.234.213.333.218.34.234.333.24.333.25.333.26.328.27.333.28.328.29.333.302.328.307.33.323.328.328.328.343.323.35.323.364.328.374.323.38.318.396.323.406.318.416.318.4.297h-3.98l-.374-.208-.494-.28-.947-.568-.458-.286-.447-.282-.432-.287-.427-.287-.41-.28-.406-.287-.4-.287-.38-.286-.37-.287-.364-.287-.35-.287-.338-.287-.328-.287-.322-.28-.307-.287-.302-.287-.286-.286-.28-.287-.27-.287-.26-.287-.255-.287-.24-.287zm6.695 0h6.575l.136.266.213.4.224.4.24.406.244.406.26.4.27.406.02.03-.01.116.063.483-.016-.02-.047.03.002.004-.002.002.012.013.3.477.323.48.328.47.323.47.307.48.276.5.25.537.234.552.047.115h-3.33l-.274-.198-.427-.312-.41-.318-.406-.312-.4-.318-.38-.323-.37-.318-.36-.323-.35-.318-.338-.323-.328-.323-.317-.328-.307-.323-.297-.328-.286-.323-.276-.33-.27-.328-.255-.328-.25-.328-.234-.328-.23-.33-.218-.333-.213-.328zm6.875 0H24.9l.016.068.198.667.104.5-.036.516-.088.53-.001.014-.108-.16-.255-.4-.244-.396-.234-.4-.224-.4-.213-.396zm7.547 0h5.153l.01.094.073.552.078.552.177 1.084.1.537.104.53.11.526.115.52.125.516.13.506.135.505.14.495.15.5.15.48.01.026h-4.395l-.354-.625-.343-.62-.323-.615-.312-.615-.296-.61-.276-.6-.27-.604-.25-.6-.24-.594-.224-.594-.056-.16.01-.018.208-.526.182-.516.062-.057.104-.03zm5.422 0h6.266v7.414h-4.645l-.038-.11-.15-.48-.15-.484-.14-.5-.135-.5-.125-.505-.125-.51-.115-.516-.11-.52-.198-1.063-.094-.537-.083-.542-.078-.547-.073-.547zm6.797 0h2.756l.038.34.208.59.203.328.26.292.333.255.4.14.406.03.442.02-.005-.115.057-.062.016-.052.156-.016.135-.1.12-.115.49-.36.115-.094-.01.073-.177 1.08-.1.532-.104.53-.104.52-.12.516-.12.51-.13.505-.13.5-.14.5-.15.484-.15.48-.038.11H43.51zm7.268 0h5.364l-.14.438-.193.568-.208.578-.22.58-.234.578-.25.583-.26.59-.276.594-.286.594-.307.594-.318.604-.333.604-.295.5h-4.39l.01-.026.156-.48.15-.5.14-.495.135-.505.13-.506.12-.516.12-.52.11-.526.104-.53.093-.537.094-.542.088-.542.052-.367.042-.034.468-.385.224-.245zm5.65 0h6.32l-.07.14-.213.396-.224.4-.234.4-.244.396-.255.4-.27.4-.28.4-.29.4-.302.4-.312.4-.328.4-.338.4-.354.4-.364.4-.374.4-.4.4-.4.4-.416.4-.067.063h-3.88l.217-.38.333-.6.323-.604.307-.6.29-.6.276-.594.26-.594.25-.588.234-.59.224-.58.208-.578.198-.578zm6.616 0h5.722l-.007.037-.062.068-.312.193-.135.307-.083.34-.073.177-.02.203.14.14.34.1-.13.176-.26.328-.265.33-.276.328-.286.323-.296.33-.307.323-.317.33-.328.323-.338.323-.35.318-.36.323-.37.318-.38.323-.395.318-.4.313-.41.318-.427.313-.277.198h-4.974l.278-.27.406-.4.395-.406.38-.406.364-.4.36-.406.338-.407.333-.406.317-.407.307-.4.29-.406.28-.407.27-.406.26-.4.25-.406.234-.406.23-.4.213-.4zm14.288 0h5.112l-.21.245-.23.26-.24.26-.244.26-.25.255-.26.255-.265.255-.27.25-.297.265.01-.27-.005-.057-.073-.052-.078.01-.037.063-.006.036h-.01v.08h.012l.004.03-.005.02-.016.01-.04-.01-.052-.016-.234.526-.198.198-.01-.026-.025.013-.032.003.016.102-.074.06-.307.245-.307.24-.318.234-.322.234-.328.234-.333.23-.338.23-.697.448-.36.22-.364.22-.37.22-.374.213-.38.208-.385.214-.4.203-.395.204-.4.203-.406.198-.41.193h-4.792l.38-.22.474-.28.468-.28.453-.287.442-.28.432-.286.42-.282.41-.286.395-.282.4-.287.38-.286.415-.327.36.14.317-.157-.116-.437.095-.078.333-.287.328-.287.317-.286.307-.287.188-.182.42-.26.52-.333.52-.333.546-.34.442-.365.323-.474zm-6.04 1.02l.16.088.166.177.177.172.354.458.307.53.374.428.434.1-.04.035-.333.28-.343.28-.03.025-.01.001-.16.005-.182.02.03.025h-.001-.001l-.028-.026v.15l.062.042.007.01-.038.03-.364.28-.38.287-.385.28-.396.282-.406.286-.416.28-.432.282-.437.28-.453.28-.463.28-.474.28-.484.276-.305.172H62.84l.403-.297.416-.318.4-.318.396-.323.385-.317.375-.323.713-.65.338-.323.333-.33.323-.328.307-.328.302-.33.29-.333.28-.33.265-.333.26-.33.23-.3.26.018.463-.047.593-.203.546-.28zm-40.748.464l.205.53.24.604.25.604.27.604.28.615.296.615.312.614.328.625.343.625.28.49h-3.877l-.067-.062-.416-.4-.4-.4-.344-.354-.057-.475.02-.59.146-.552.323-.495.452-.417.458-.38.437-.516.1-.088.13-.078.115-.1.036-.28-.02-.292.057-.255zm47.45 1.797v.038l-.55.31-.635.255-.66.224-.146.09-.14.167-.078.26.676-.162.635-.328.8-.35.15-.115.078-.167.052-.224h-.172zm-49.66 3.392l.065.067.406.4.28.27h-.347l-.054-.146-.094-.088-.125-.114-.078-.125zm-8.186 1.005h3.873l.096.068.447.318.463.313.473.307.484.313.494.308.5.307.515.302.536.302.202.113-.05.08-.24-.005-.364-.104-.354-.094-.302.047-.24.14-.203.208-.085.076-.285-.12.001-.002-.64-.276-.002.004-.618-.28.001-.002-.614-.276-.598-.276-.588-.28-.572-.276-.562-.28-.552-.282-.536-.28-.53-.28zm4.336 0h3.065l.074.183.333.35.494.135.54.177-.052-.453-.105-.39h.532l.292.27.442.4.458.407.474.4.446.37-.27.146-.14.5-.744-.016-.75-.062-.734.005v-.047l-.057-.057-.078-.042-.1-.026h-.11l-.083.03-.054.13-.2-.104-.53-.302-1.02-.6-.494-.307-.48-.308-.474-.307-.458-.313zm5.273 0h3.75l.297.5.4.636.022.034-.407.034-.65.183-.66.22-.1.063-.104.068-.083.016-.418.008-.107-.086-.484-.4-.468-.396-.458-.4-.442-.4zm4.06 0h4.33l.064.183.166.47.177.458.182.448.193.443.052.112-.405.23-.61.23h-.66l-.614-.234-.578-.297-.562-.338-.562-.365-.44-.148-.13-.2-.4-.63zm4.61 0h4.553v1.312l-.37.018-.676-.094-.676.104-.505.156-.515.088-.484.13-.54.27-.042-.09-.187-.437-.182-.443-.177-.453-.166-.463zm5.084 0h4.553l-.032.094-.166.463-.177.453-.127.3-.008-.002-.49-.182-.484-.22-.48-.25-.013.027.008-.032-.354-.114-.416.005-.406.11-.536.224-.552.22-.323.112zm4.833 0h4.327l-.258.438-.38.6-.18.28-.538-.004-.67.125-.53.12-.525.052h-.515l-.515-.052-.505-.104-.23-.067.117-.287.177-.458.166-.47zm4.64 0h3.747l-.078.073-.442.4-.453.4-.468.396-.484.4-.075.06-.008.002-.5.114-.494.01-.4-.01-.396-.042-.36-.203-.445-.213.128-.2.385-.615zm4.142 0h4.88l-.23.162-.463.313-.468.307-.48.308-.494.307-.67.4-.34-.094-.583-.1-.583.02-.583.198-.302.052-.307-.088-.312-.146-.312-.115-.328.005-.213.046.12-.098.468-.4.463-.406.442-.4zm5.344 0h3.86l-.224.125-.52.276-.53.276-.546.28-.557.276-.567.276-.578.276-.332.154-.345-.264-.546-.375-.323-.083-.333.047-.343.15-.4.183-.363.142.192-.116.494-.308.484-.312.474-.307.463-.313.448-.318zM55.632 42.4l.02.125h-.002zm-23.693.202l-.014.105h-.002zm1.408.112l9.433.033-9.43-.033zm19.498.07l.014.12h-.002l-.013-.12zm-.568.067l.013.118h-.002l-.01-.118zm-17.8.075l-.005.062-.002.025h-.002l.003-.03zm14.93.215h.001l.007.094h-.002zm-.577.045h.001l.007.088h-.002zm-.574.042h.002l.006.082h-.002zm-9.155.042h.001l-.004.094h-.002zm.516.024v.038l-.001.055h-.002z" fill="#655e7a" fill-rule="evenodd"/><g fill="#444" fill-opacity=".945"><path d="M97.6 16.677V4.74h2.84q2.087 0 3.242 1.312 1.154 1.304 1.154 3.673v2q0 2.37-1.17 3.665-1.17 1.287-3.397 1.287zm1.498-10.64V15.4h1.203q1.58 0 2.31-.902.73-.9.745-2.69V9.684q0-1.885-.73-2.763-.72-.885-2.186-.885z"/><use xlink:href="#A"/><use xlink:href="#B"/><path d="M124.065 14.407q0-.468-.352-.804-.352-.336-1.36-.787-1.17-.483-1.654-.828-.475-.344-.712-.78-.237-.442-.237-1.05 0-1.082.786-1.795.794-.72 2.022-.72 1.293 0 2.08.754.786.754.786 1.935h-1.44q0-.6-.4-1.017-.4-.426-1.023-.426-.64 0-1.007.336-.36.328-.36.886 0 .442.262.713.27.27 1.285.713 1.613.63 2.194 1.238.58.6.58 1.525 0 1.156-.794 1.853-.794.688-2.128.688-1.383 0-2.243-.795-.86-.795-.86-2.017h1.457q.025.738.45 1.156.426.418 1.195.418.72 0 1.097-.32.377-.328.377-.877zm3.02-2.567q0-2.05.76-3.124.77-1.074 2.202-1.074 1.27 0 1.98 1.033v-4.6h1.45v12.592h-1.326l-.074-.95q-.712 1.115-2.038 1.115-1.375 0-2.16-1.066-.778-1.074-.794-3.025zm1.45.828q0 1.492.442 2.197.442.697 1.44.697 1.08 0 1.613-1.1V9.996q-.557-1.066-1.605-1.066-1 0-1.44.705-.442.697-.45 2.148zm8.538-4.86l.04.96q.843-1.123 2.153-1.123 2.35 0 2.382 3.14v5.895h-1.44v-5.83q0-1.042-.352-1.476-.344-.442-1.04-.442-.54 0-.974.36-.426.36-.688.942v6.444h-1.45v-8.87z"/><use xlink:href="#B" x="31.925"/><use xlink:href="#A" x="44.73"/><path d="M102.806 33.487q0-.894-.483-1.37-.483-.476-1.744-.926-1.26-.45-1.932-.943-.663-.5-1-1.13-.327-.64-.327-1.46 0-1.418.94-2.336.95-.918 2.48-.918 1.048 0 1.866.476.82.467 1.26 1.303.442.836.442 1.836h-1.506q0-1.107-.532-1.713-.532-.606-1.53-.606-.9 0-1.408.508-.5.508-.5 1.426 0 .754.54 1.263.54.508 1.67.9 1.76.582 2.513 1.435.76.853.76 2.23 0 1.45-.94 2.33-.94.87-2.562.87-1.04 0-1.924-.45-.876-.46-1.383-1.28-.5-.828-.5-1.894h1.506q0 1.107.614 1.722.622.615 1.686.615 1 0 1.5-.508.5-.508.5-1.386zm9.668-.992q0 2.107-.76 3.14-.753 1.033-2.137 1.033-1.334 0-2.055-1.008v4.255h-1.44v-12.28h1.3l.074.984q.73-1.148 2.087-1.148 1.457 0 2.178 1.017.72 1.017.745 3.042zm-1.44-.828q0-1.492-.458-2.197-.458-.713-1.474-.713-1.04 0-1.58 1.042v4.615q.532 1.017 1.596 1.017.982 0 1.44-.705.467-.713.475-2.172z"/><use xlink:href="#C"/><path d="M123.697 36.504q-.13-.287-.188-.968-.77 1.13-1.965 1.13-1.203 0-1.883-.672-.67-.68-.67-1.9 0-1.353.917-2.148.917-.795 2.513-.812h1.064v-.942q0-.795-.352-1.13-.352-.336-1.072-.336-.655 0-1.064.394-.4.385-.4.984h-1.45q0-.68.4-1.295.4-.623 1.08-.976.68-.353 1.514-.353 1.36 0 2.063.68.712.672.73 1.967v4.477q.008 1.024.278 1.78v.13zm-1.932-1.156q.532 0 1.015-.295.483-.295.704-.738V32.2h-.82q-1.03.017-1.63.467-.598.443-.598 1.246 0 .754.303 1.1.303.336 1.023.336zm8.473.082q.72 0 1.154-.442.434-.45.475-1.28h1.367q-.05 1.28-.9 2.124-.85.836-2.087.836-1.645 0-2.513-1.033-.86-1.04-.86-3.1v-.976q0-2.008.86-3.05.86-1.05 2.505-1.05 1.36 0 2.153.86.802.86.85 2.353h-1.367q-.05-.984-.475-1.476-.417-.492-1.162-.492-.966 0-1.433.64-.467.63-.483 2.083v1.13q0 1.566.458 2.214.467.647 1.465.647zm6.132-6.886q.827-1.074 2.112-1.074 2.35 0 2.382 3.14v5.895h-1.44v-5.83q0-1.04-.352-1.476-.344-.443-1.04-.443-.54 0-.974.36-.426.36-.688.943v6.444h-1.45v-12.59h1.45z"/><use xlink:href="#D"/><path d="M152.234 27.634l.04.96q.843-1.123 2.153-1.123 2.35 0 2.382 3.14v5.895h-1.44v-5.83q0-1.04-.352-1.476-.344-.443-1.04-.443-.54 0-.974.36-.426.36-.688.943v6.444h-1.45v-8.87zm8.653-2.148v2.148h1.334v1.172h-1.334v5.5q0 .524.172.795.172.27.6.27.287 0 .58-.1l-.016 1.23q-.5.164-1.007.164-.86 0-1.3-.615-.45-.615-.45-1.738v-5.5h-1.35V27.63h1.35v-2.148z"/><use xlink:href="#C" x="49.574"/><use xlink:href="#D" x="25.869"/><use xlink:href="#E"/><use xlink:href="#E" x="5.306"/><use xlink:href="#D" x="48.168"/><use xlink:href="#F"/><path d="M207.065 34.2l2.726-9.633h1.645l-3.708 11.937h-1.3l-3.7-11.937h1.637z"/><use xlink:href="#F" x="11.985"/></g><defs><path id="A" d="M110.615 9.168q-.303-.058-.655-.058-1.113 0-1.555 1.222v6.345h-1.45v-8.87h1.408l.025.902q.58-1.065 1.645-1.065.344 0 .573.115z"/><path id="B" d="M115.07 16.84q-1.654 0-2.538-.984-.884-.992-.9-2.902V11.88q0-1.984.86-3.107.868-1.13 2.415-1.13 1.555 0 2.325.992.77.992.786 3.09v.95h-4.944v.205q0 1.426.532 2.074.54.648 1.547.648.64 0 1.122-.238.49-.246.917-.77l.753.918q-.94 1.328-2.873 1.328zm-.164-7.952q-.9 0-1.334.623-.434.615-.49 1.918h3.487v-.197q-.057-1.263-.458-1.804-.393-.54-1.203-.54z"/><path id="C" d="M118.016 28.995q-.303-.057-.655-.057-1.113 0-1.555 1.22v6.346h-1.45v-8.87h1.408l.025.902q.58-1.066 1.645-1.066.344 0 .573.115z"/><path id="D" d="M146.176 36.668q-1.654 0-2.538-.983-.884-.992-.9-2.902v-1.074q0-1.984.86-3.107.868-1.13 2.415-1.13 1.555 0 2.325.992.77.992.786 3.09v.95h-4.944v.205q0 1.426.532 2.074.54.647 1.547.647.64 0 1.122-.238.49-.246.917-.77l.753.918q-.94 1.328-2.873 1.328zm-.164-7.952q-.9 0-1.334.623-.434.615-.49 1.918h3.487v-.197q-.057-1.262-.458-1.804-.393-.54-1.203-.54z"/><path id="E" d="M177.374 36.504v-7.698h-1.154v-1.172h1.154V26.61q.025-1.353.68-2.107.663-.762 1.866-.762.434 0 .876.14l-.074 1.23q-.31-.074-.663-.074-1.236 0-1.236 1.762v.836h1.514v1.172h-1.514v7.698z"/><path id="F" d="M199.133 35.71q0-.394.23-.656.237-.262.704-.262.467 0 .704.262.246.262.246.656 0 .377-.246.63-.237.254-.704.254-.467 0-.704-.254-.23-.254-.23-.63z"/></defs></svg>